<svg width="480" height="480" xmlns="http://www.w3.org/2000/svg" xmlns:xlink="http://www.w3.org/1999/xlink">
 <defs>
  <filter color-interpolation-filters="sRGB" id="filter3027">
   <feGaussianBlur stdDeviation="2" id="feGaussianBlur3033"/>
  </filter>
  <linearGradient id="linearGradient3038">
   <stop stop-color="#000000" id="stop3040" offset="0"/>
   <stop stop-color="#6d5656" id="stop3042" offset="1"/>
  </linearGradient>
  <linearGradient y2="0.5" x2="1" y1="0.5" x1="0" id="linearGradient3044" xlink:href="#linearGradient3038"/>
  <linearGradient y2="-0.165612" x2="1.298951" y1="0.771132" x1="0.273601" id="linearGradient3046" xlink:href="#linearGradient3038"/>
  <linearGradient y2="0.055318" x2="0.954665" y1="0.523715" x1="0.195526" id="linearGradient3048" xlink:href="#linearGradient3038"/>
 </defs>
 <metadata id="metadata7">image/svg+xml</metadata>
 <g>
  <title>background</title>
  <rect fill="none" id="canvas_background" height="482" width="482" y="-1" x="-1"/>
 </g>
 <g>
  <title>Layer 1</title>
  <g stroke="none" id="layer1">
   <g stroke="none" fill="#ff6600" transform="matrix(-0.30241607863176834,0,0,0.39285396787469,522.4872204124015,171.61862283333315) " id="Beak"/>
   <g stroke="none" id="g3834"/>
   <g stroke="none" filter="url(#filter3027)" transform="matrix(1.1165562445257236,0,0,1.152013322478946,-179.0426129968491,-54.24378623283471) " id="g3028">
    <path stroke="#000000" fill="#1a1a1a" stroke-width="1px" d="m558.492131,213.34089c30.58056,8.88558 30.58056,8.88558 30.58056,8.88558l-28.51656,8.37201l19.51099,8.17009l-20.54125,3.8411l-1.03374,-29.26878z" id="path3014"/>
    <path stroke="none" fill="url(#linearGradient3044)" stroke-width="6" stroke-miterlimit="4" d="m271.654111,156.38567c-4.10926,52.20936 58.43778,135.9163 120.24988,142.56291c24.153,2.59715 59.60196,-20.22121 57.75649,-44.44323c-5.14714,-67.55681 -109.42627,-70.95147 -178.00637,-98.11968z" id="path3057-6"/>
    <path stroke="none" fill="url(#linearGradient3046)" d="m161.830731,350.60876c67.67888,75.43641 189.56586,109.43536 278.21136,72.92461c73.95409,-30.45975 121.90526,-128.7228 121.92914,-206.65506c0.0163,-53.37224 -53.43658,-114.07539 -132.56638,-89.05101c-35.54455,11.24078 -62.66397,46.94706 -85.57114,79.38053c-51.18227,68.1237 -96.56896,113.89003 -182.00298,143.40093z" id="path3055"/>
    <path stroke="none" fill="url(#linearGradient3048)" stroke-width="6" stroke-miterlimit="4" d="m212.742181,197.17842c4.30612,52.1935 79.45291,124.80164 141.53158,121.46206c24.25715,-1.30495 55.59365,-29.50654 49.89239,-53.12026c-15.90119,-65.86021 -119.37777,-52.50874 -191.42397,-68.3418z" id="path3057"/>
    <path stroke="none" transform="rotate(10.213229179382324 461.47946166992193,219.03788757324222) " fill="#7f007f" d="m384.131302,156.077205c21.513899,2.69453 59.504268,12.24285 89.482488,14.846687c24.604589,2.137087 53.676919,1.212993 73.954028,0.6171c14.68607,35.284886 15.87493,72.904154 11.73019,105.823905c-43.238799,10.149791 -75.433768,2.666004 -110.712117,-13.137354c-32.094719,-14.377231 -63.927908,-36.039455 -86.999078,-72.139745c10.28822,-20.51751 13.78951,-24.949632 22.544489,-36.010593z" id="path3038"/>
    <g stroke="none" id="g3044" transform="matrix(0.86579468,0.3649666,-0.26391158,0.69231919,85.48741,-162.41002) ">
     <g stroke="none" transform="matrix(2,0,0,2.2452831,-561.08547,-140.09006) " id="g3016">
      <g stroke="none" id="g3024">
       <path stroke="none" fill="#ffffff" fill-rule="nonzero" d="m580.793251,165.851283c0,7.177583 -6.587063,12.996164 -14.712637,12.996164c-8.125563,0 -14.712638,-5.818582 -14.712638,-12.996164c0,-7.177583 6.587075,-12.996164 14.712638,-12.996164c8.125575,0 14.712637,5.818582 14.712637,12.996164z" id="path3012"/>
       <path stroke="none" fill="#1a1a1a" fill-rule="nonzero" d="m579.812374,165.445356c0,5.41705 -4.61096,9.80843 -10.29885,9.80843c-5.6879,0 -10.29885,-4.39138 -10.29885,-9.80843c0,-5.41704 4.61095,-9.80843 10.29885,-9.80843c5.68789,0 10.29885,4.39139 10.29885,9.80843z" id="path3797"/>
       <path stroke="none" fill="#ffffff" fill-rule="nonzero" d="m575.7871,160.382337c0,1.91521 -1.55259,3.4678 -3.4678,3.4678c-1.91522,0 -3.46781,-1.55259 -3.46781,-3.4678c0,-1.91522 1.55259,-3.46781 3.46781,-3.46781c1.91521,0 3.4678,1.55259 3.4678,3.46781z" id="path3801"/>
      </g>
     </g>
    </g>
    <path stroke="none" fill="#1a1a1a" fill-rule="nonzero" d="m542.546931,201.61163c-5.40955,-3.37349 -9.89511,-8.00238 -15.27944,-11.4174c-5.18488,-3.49807 -10.5331,-6.8719 -16.34727,-9.22002c-2.54854,-0.88107 -5.09894,-1.75716 -7.63552,-2.67231c-1.73429,0.41352 0.32979,-1.13719 0.69065,-1.71108c1.75547,-1.9591 3.51096,-3.9182 5.26644,-5.87729c2.2776,0.30009 4.2895,1.55461 6.5078,2.08759c6.00318,2.45851 11.42852,6.09054 16.85342,9.59769c5.33029,3.5972 10.30368,7.71968 15.67686,11.24008c1.59112,0.2977 1.50562,1.40438 0.27975,2.07547c-2.00424,1.96575 -4.00844,3.93156 -6.01269,5.89727z" id="path3043"/>
    <path stroke="none" fill="#7f007f" fill-rule="nonzero" d="m393.817771,173.92117c-10.36999,-0.36057 -22.4411,0.92855 -30.3887,-8.66162c-6.9977,-7.66674 -12.69186,-17.21086 -16.3641,-27.61311c-0.63688,-7.55618 -0.64379,-16.78667 -7.54473,-20.37677c-7.9648,-5.05478 -17.37554,-4.32732 -26.08455,-5.72658c-16.43477,-1.09317 -32.0931,5.75898 -47.41216,11.82065c-7.27266,2.85452 -16.21291,2.3303 -21.54489,-4.95415c-4.15354,-4.76447 -6.67789,-10.93486 -9.29982,-16.84153c-3.83989,-3.82367 -4.0705,-9.7639 1.11305,-11.34888c3.19135,-2.16378 6.38271,-4.32755 9.57406,-6.49132c4.90308,10.61164 8.63358,24.24694 18.97309,28.97523c10.6148,2.68723 20.45991,-4.52723 30.46652,-7.44993c14.18591,-5.3972 29.34541,-6.20962 43.99668,-3.34773c8.43616,0.88663 18.64523,4.54479 21.19572,15.42017c0.74601,9.43048 2.44593,18.61605 8.08503,25.69791c5.33569,9.58312 13.16015,18.71783 23.43171,19.11175c3.39992,1.33374 14.52609,-1.39066 13.30116,1.87853c-3.83269,3.30246 -7.66538,6.60492 -11.49807,9.90738z" id="path3095"/>
    <path stroke="none" fill="#7f007f" fill-rule="nonzero" d="m388.870441,164.94645c-7.51971,-4.90359 -16.71844,-9.22969 -19.91648,-18.2563c-2.11832,-6.04415 -4.29431,-12.1555 -5.35477,-18.47912c-0.92927,-8.59368 0.0256,-17.25397 -0.40295,-25.86708c1.38582,-5.49621 -2.17858,-10.55272 -7.68348,-11.56743c-7.21507,-2.10321 -14.84704,-1.82663 -22.24465,-2.84536c-6.80007,-0.37061 -14.91553,1.10883 -20.30903,-4.00571c-4.09066,-4.87853 -5.86768,-11.19245 -7.89479,-17.10313c-0.46476,-3.08726 3.63491,-3.21074 5.41702,-5.03626c3.25192,-2.0633 6.50383,-4.12659 9.75575,-6.18989c0.70572,5.75103 3.22801,11.11892 5.4821,16.39099c3.11114,5.53909 9.92565,5.80339 15.54728,5.66422c8.8151,0.56086 17.76836,0.73464 26.40085,2.69296c5.44138,1.2713 11.85407,5.1236 11.28172,11.45835c0.36689,13.12466 -1.80668,26.73482 2.70554,39.39058c1.86469,5.66123 3.69455,11.77212 8.70159,15.53075c3.75441,3.4807 8.47581,5.76731 12.65971,8.54496c-3.4282,2.99846 -7.80274,5.25732 -11.59256,7.98713c-0.85097,0.56342 -1.70193,1.12686 -2.55285,1.69034z" id="path3097"/>
    <text opacity="0.75" font-weight="bold" font-style="normal" stroke="none" transform="rotate(36.356319427490234 463.10327148437506,225.10806274414062) matrix(2.0461367007810143,0,0,2.605486778898822,-425.9657694368167,-291.63101705597876) " xml:space="preserve" text-anchor="start" font-family="Helvetica, Arial, sans-serif" font-size="24" id="svg_1" y="206.597933" x="393.184194" stroke-width="0" fill="#ffffff">Builder</text>
   </g>
  </g>
 </g>
</svg>